<svg width="18" height="20" viewBox="0 0 18 20" fill="none" xmlns="http://www.w3.org/2000/svg">
<path d="M5 6L5 5C5 2.79086 6.79086 1 9 1C11.2091 1 13 2.79086 13 5V6M5 6L13 6M5 6C3.11438 6 2.17157 6 1.58579 6.58579C1 7.17157 1 8.11438 1 10V11C1 14.7712 1 16.6569 2.17157 17.8284C3.34315 19 5.22876 19 9 19C12.7712 19 14.6569 19 15.8284 17.8284C17 16.6569 17 14.7712 17 11V10C17 8.11438 17 7.17157 16.4142 6.58579C15.8284 6 14.8856 6 13 6M12 12V10M6 12V10" stroke="#33363F" stroke-width="2" stroke-linecap="round"/>
</svg>