<svg width="484" height="159" viewBox="0 0 484 159" fill="none" xmlns="http://www.w3.org/2000/svg">
<path d="M17.8738 43.9755C17.8738 43.9755 13.5506 58.8974 21.4299 73.7961C24.7537 80.0949 39.1642 96.4812 61.8493 85.4176C64.2898 87.3467 66.1957 89.8105 67.6368 92.5531C68.8919 92.4369 71.9135 92.5996 71.9135 92.5996C68.5665 86.417 63.732 80.7457 59.0834 79.3744C37.9324 73.2151 26.9153 55.318 26.9153 55.318C26.9153 55.318 36.3983 70.0773 60.3153 77.4453C64.0806 78.6074 67.66 81.6987 67.66 81.6987C68.1713 81.4198 75.1675 47.6711 30.5411 47.1366C24.5212 47.0668 17.897 43.9988 17.897 43.9988L17.8738 43.9755Z" fill="#5C8C45"/>
<path d="M0 109.195C0 109.195 8.71608 122.072 25.1953 125.535C32.1681 126.999 53.97 126.395 59.9666 101.874C63.0114 101.223 66.126 101.339 69.1476 101.99C69.8681 100.967 71.9135 98.7357 71.9135 98.7357C65.0103 97.3644 57.5726 97.4341 53.5516 100.154C35.2827 112.472 14.4803 109.497 14.4803 109.497C14.4803 109.497 31.8892 111.636 52.8543 97.9687C56.1548 95.8071 60.8266 95.0401 60.8266 95.0401C60.9428 94.459 39.4432 67.5205 10.529 101.478C6.62423 106.057 0.0232478 109.172 0.0232478 109.172L0 109.195Z" fill="#5C8C45"/>
<path d="M245.143 43.9755C245.143 43.9755 238.518 47.0436 232.498 47.1133C187.872 47.6479 194.868 81.3965 195.38 81.6755C195.38 81.6755 198.936 78.5842 202.724 77.422C226.641 70.054 236.124 55.2948 236.124 55.2948C236.124 55.2948 225.084 73.1918 203.956 79.3512C199.284 80.7225 194.473 86.3938 191.126 92.5764C191.126 92.5764 194.148 92.4369 195.403 92.5299C196.844 89.7872 198.75 87.3235 201.19 85.3943C223.875 96.4579 238.286 80.0717 241.61 73.7729C249.466 58.8974 245.166 43.9523 245.166 43.9523L245.143 43.9755Z" fill="#5C8C45"/>
<path d="M263.016 109.195C263.016 109.195 256.415 106.08 252.511 101.502C223.573 67.5438 202.097 94.4823 202.213 95.0634C202.213 95.0634 206.885 95.8304 210.185 97.9919C231.15 111.682 248.559 109.52 248.559 109.52C248.559 109.52 227.734 112.472 209.488 100.177C205.467 97.4574 198.006 97.3876 191.126 98.759C191.126 98.759 193.172 100.99 193.892 102.013C196.937 101.385 200.028 101.269 203.096 101.897C209.093 126.418 230.895 127.022 237.868 125.558C254.347 122.095 263.063 109.218 263.063 109.218L263.016 109.195Z" fill="#5C8C45"/>
<path d="M189.615 143.176C189.615 143.176 148.08 101.641 143.92 97.5271C140.178 93.7385 49.4841 3.27724 49.4841 3.27724L47.4155 5.34586C47.4155 5.34586 40.0707 31.7033 110.613 102.245C127.115 92.8553 135.808 112.449 136.645 115.238C140.224 118.841 177.366 155.425 177.366 155.425L177.413 155.379C177.413 155.379 177.459 155.472 177.506 155.518C180.876 158.935 186.385 158.912 189.732 155.518C193.102 152.148 193.102 146.663 189.732 143.292C189.732 143.292 189.662 143.223 189.615 143.223V143.153V143.176Z" fill="#503431"/>
<path d="M215.81 23.8239L212.138 20.1516L174.879 59.5947L170.486 55.2018L208.837 16.8511L205.63 13.6436L167.023 52.25L163.374 48.6008L201.981 9.99443L198.424 6.43827L159.818 45.0447L155.518 40.7448L195.38 3.34697L192.033 0L155.309 28.612C155.309 28.612 153.984 29.7509 153.519 30.2157C148.475 35.2594 146.291 42.0928 147.034 48.6706C145.477 74.2842 123.396 79.9555 120.119 83.2327C116.517 86.8819 60.4082 143.013 60.4082 143.013C60.3618 143.06 60.3153 143.06 60.2455 143.13C56.8056 146.57 56.8288 152.125 60.2455 155.565C63.6855 159.005 69.2638 159.005 72.6805 155.565C72.7502 155.495 72.7502 155.448 72.7735 155.425H72.7967C72.7967 155.425 128.184 100.037 132.438 95.8071C136.25 91.9953 145.221 69.1011 168.674 68.8454C168.697 68.8454 168.767 68.8454 168.813 68.8454C174.322 69.0081 179.877 67.1487 184.316 63.2903C184.641 63.0114 185.362 62.2909 185.362 62.2909L215.81 23.8937V23.8239Z" fill="#503431"/>
<path d="M313.608 46.024C310.969 46.024 308.885 45.2297 307.356 43.6412C305.827 42.0687 305.063 39.7581 305.063 36.7094C305.063 35.0246 305.264 33.6046 305.666 32.4493C306.053 31.31 306.616 30.3874 307.356 29.6814C308.096 28.9914 308.99 28.4859 310.036 28.165C311.098 27.8441 312.305 27.6837 313.657 27.6837C316.489 27.6837 318.645 28.3977 320.126 29.8258C321.59 31.2538 322.323 33.5484 322.323 36.7094C322.323 39.6458 321.574 41.9323 320.078 43.569C318.597 45.2057 316.441 46.024 313.608 46.024ZM306.197 134.813V57.1437H320.512V134.813H306.197Z" fill="#5C8C45"/>
<path d="M340.323 133.781V24.9889H380.773V37.9798H356.868V70.5385H375.348V83.5294H356.868V120.79H381.4V133.781H340.323ZM404.468 134.732C401.742 134.732 399.325 134.188 397.217 133.101C395.109 132.032 393.328 130.556 391.875 128.671C390.439 126.805 389.349 124.595 388.604 122.04C387.859 119.467 387.486 116.668 387.486 113.642C387.486 110.037 387.931 106.83 388.822 104.021C389.712 101.231 391.021 98.7126 392.747 96.4659C394.473 94.2011 396.608 92.1447 399.152 90.2966C401.715 88.4485 404.677 86.7001 408.038 85.0513C409.656 84.236 411.482 83.4207 413.517 82.6053C415.534 81.7719 417.333 81.0562 418.914 80.4583V68.8807C418.914 67.1776 418.851 65.5922 418.723 64.1246C418.596 62.657 418.287 61.3797 417.797 60.2926C417.306 59.2236 416.57 58.3811 415.589 57.7651C414.607 57.149 413.263 56.841 411.555 56.841C410.41 56.841 409.292 57.0494 408.202 57.4661C407.112 57.901 406.158 58.6257 405.34 59.6403C404.504 60.6549 403.841 62.0138 403.35 63.7169C402.859 65.4201 402.614 67.5218 402.614 70.0221V73.8542H390.294C389.912 72.1873 389.621 70.6653 389.422 69.2883C389.24 67.9113 389.149 66.5434 389.149 65.1845C389.149 61.9051 389.712 59.0152 390.839 56.5149C391.966 54.0146 393.537 51.9128 395.554 50.2097C397.572 48.5066 399.988 47.2202 402.805 46.3505C405.622 45.4808 408.711 45.046 412.073 45.046C416.452 45.046 420.095 45.5261 423.003 46.4864C425.892 47.4467 428.2 48.878 429.926 50.7804C431.652 52.701 432.87 55.1017 433.579 57.9825C434.269 60.8633 434.614 64.2424 434.614 68.1197V133.781H422.621L421.449 126.252C419.705 128.771 417.379 130.809 414.471 132.367C411.546 133.944 408.211 134.732 404.468 134.732ZM411.636 122.312C412.999 122.312 414.326 121.958 415.616 121.252C416.906 120.563 418.006 119.712 418.914 118.697V91.2206C418.06 91.5649 417.097 91.9725 416.025 92.4436C414.971 92.9147 413.826 93.5307 412.59 94.2917C411.427 95.0164 410.292 95.8861 409.183 96.9007C408.093 97.9154 407.103 99.1293 406.212 100.543C405.34 101.938 404.64 103.514 404.113 105.271C403.586 107.029 403.323 108.995 403.323 111.169C403.323 114.521 403.977 117.22 405.285 119.268C406.612 121.297 408.729 122.312 411.636 122.312ZM453.22 111.93V57.5476H446.379V46.0787H454.611L457.881 23.3311H469.384V46.0787H483.422V57.5476H469.384V113.343C469.384 115.246 469.566 116.786 469.929 117.963C470.275 119.123 470.774 120.029 471.428 120.681C472.064 121.351 472.81 121.786 473.664 121.986C474.518 122.203 475.408 122.312 476.335 122.312C477.916 122.312 479.315 122.121 480.532 121.741C481.732 121.361 482.886 120.826 483.994 120.138V129.079C483.067 130.22 482.059 131.153 480.969 131.878C479.878 132.603 478.761 133.183 477.616 133.618C476.471 134.071 475.299 134.379 474.1 134.542C472.9 134.723 471.728 134.813 470.583 134.813C468.33 134.813 466.159 134.514 464.069 133.917C461.979 133.319 460.126 132.177 458.508 130.492C456.891 128.825 455.601 126.506 454.638 123.535C453.693 120.563 453.22 116.695 453.22 111.93Z" fill="#503431"/>
</svg>